<?xml version="1.0" encoding="UTF-8" standalone="no"?>
<!DOCTYPE svg PUBLIC "-//W3C//DTD SVG 1.1//EN" "http://www.w3.org/Graphics/SVG/1.1/DTD/svg11.dtd">
<svg width="100%" height="100%" viewBox="0 0 2363 2363" version="1.1" xmlns="http://www.w3.org/2000/svg" xmlns:xlink="http://www.w3.org/1999/xlink" xml:space="preserve" xmlns:serif="http://www.serif.com/" style="fill-rule:evenodd;clip-rule:evenodd;stroke-linejoin:round;stroke-miterlimit:2;">
    <g transform="matrix(1.4499,0,0,1.4499,-568.929,-100.372)">
        <g transform="matrix(15.7759,0,0,15.7759,1371.9,833.774)">
            <path d="M0,-15.1C-0.082,-15.034 -0.251,-14.931 -0.376,-14.789C-0.587,-14.55 -0.48,-14.327 -0.29,-14.124C0.286,-13.507 1.013,-13.014 1.187,-12.079C1.229,-11.857 1.612,-11.582 1.881,-11.996C2.266,-12.587 0.845,-15.067 0,-15.1M-7.241,-11.779C-6.738,-12.072 -6.125,-12.009 -5.528,-12.087C-4.763,-12.188 -3.483,-11.534 -3.373,-12.759C-3.255,-14.085 -4.727,-13.555 -5.461,-13.884C-6.635,-14.411 -7.359,-13.654 -7.832,-12.708C-8.006,-12.36 -8.068,-11.744 -7.241,-11.779M-12.713,-11.885C-12.842,-11.782 -12.971,-11.679 -13.1,-11.575C-13.1,-11.223 -13.096,-10.87 -13.101,-10.518C-13.113,-9.75 -13.018,-8.905 -14.229,-9.049C-15.306,-9.178 -15.349,-9.678 -15.042,-10.634C-14.707,-11.678 -16.51,-12.977 -17.598,-12.841C-19.265,-12.632 -19.532,-10.894 -21.212,-10.196C-19.838,-10.196 -18.917,-10.234 -18,-10.185C-17.039,-10.134 -16.212,-10.094 -16.087,-8.669C-15.946,-7.061 -13.31,-6.084 -11.821,-6.903C-11.17,-7.261 -10.443,-7.539 -9.803,-7.073C-8.839,-6.37 -7.781,-6.177 -6.644,-6.14C-6.241,-6.127 -5.674,-5.571 -5.496,-6.26C-5.327,-6.913 -5.383,-7.697 -6.102,-8.113C-6.441,-8.308 -6.864,-8.374 -7.258,-8.453C-9.47,-8.895 -12.093,-8.593 -12.713,-11.885M-1.392,-35.019C-2.108,-35.874 -3.544,-35.233 -3.517,-36.262C-3.482,-37.609 -4.331,-37.821 -5.172,-38.242C-6.058,-38.685 -7.056,-39.711 -7.769,-39.533C-9.715,-39.049 -11.7,-39.187 -13.627,-38.786C-14.007,-38.707 -14.375,-38.532 -14.312,-38.114C-14.197,-37.362 -15.286,-36.55 -13.952,-35.742C-13.53,-35.486 -13.169,-34.075 -12.835,-33.174C-12.666,-32.717 -12.673,-31.996 -13.259,-31.85C-14.137,-31.63 -14.523,-30.831 -15.21,-30.468C-16.635,-29.713 -17.637,-28.144 -19.578,-28.341C-21.297,-28.515 -23.03,-28.488 -24.606,-27.541C-24.952,-27.333 -25.459,-27.314 -25.773,-27.571C-26.175,-27.9 -25.971,-28.399 -25.895,-28.851C-25.699,-30.026 -24.608,-30.516 -23.889,-31.308C-25.36,-31.778 -26.152,-31.172 -26.965,-30.095C-28.379,-28.222 -30.459,-26.835 -31.008,-24.346C-31.092,-23.968 -31.354,-23.73 -31.784,-23.752C-32.244,-23.776 -32.56,-23.988 -32.672,-24.445C-32.865,-25.23 -32.749,-25.967 -32.225,-26.593C-31.955,-26.916 -31.643,-27.184 -32.032,-27.652C-32.527,-27.423 -32.828,-26.949 -32.907,-26.51C-33.068,-25.618 -33.908,-25.663 -34.14,-25.913C-35.305,-27.173 -35.973,-26.072 -36.538,-25.404C-37.708,-24.017 -39.612,-22.952 -38.984,-20.611C-38.938,-20.439 -39.219,-20.008 -39.393,-19.98C-39.99,-19.883 -39.983,-19.923 -40.132,-19.653C-40.52,-18.952 -40.29,-17.949 -40.587,-17.475C-41.62,-15.82 -40.772,-13.824 -41.851,-12.179C-42.258,-11.559 -41.891,-10.49 -42.42,-9.639C-42.675,-9.228 -42.789,-8.395 -42.244,-7.81C-41.523,-7.036 -41,-5.921 -41.185,-5.049C-41.628,-2.959 -40.505,-1.527 -39.65,0.086C-38.815,1.661 -37.806,3.143 -37.743,5.074C-37.705,6.216 -38.002,7.39 -37.531,8.53C-35.959,12.341 -33.107,15.152 -30.03,17.658C-25.539,21.317 -20.371,23.555 -14.546,24.302C-9.796,24.91 -5.184,24.533 -0.681,23C4.982,21.072 9.778,17.841 13.649,13.237C14.57,12.141 15.042,10.787 15.972,9.725C16.721,8.867 17.839,8.19 17.272,6.757C17.245,6.688 17.302,6.54 17.367,6.486C18.874,5.247 19.243,3.349 19.978,1.708C20.784,-0.094 21.038,-2.068 20.998,-4.12C20.975,-5.291 20.919,-6.478 20.761,-7.614C20.646,-8.439 20.036,-9.248 19.198,-9.739C18.806,-9.969 18.514,-10.047 18.443,-9.502C18.199,-7.616 17.097,-5.776 17.602,-3.895C17.932,-2.669 17.551,-1.608 17.597,-0.475C17.629,0.299 17.255,0.312 16.624,0.027C15.254,-0.591 14.295,-1.622 13.803,-2.975C13.063,-5.011 10.398,-6.14 8.394,-5.402C7.985,-5.251 7.938,-5.381 8.155,-4.836C8.799,-3.223 7.194,0.251 5.583,0.728C4.596,1.021 4.047,1.713 3.026,2.376C4.803,2.198 5.014,2.992 4.686,4.158C4.352,5.341 3.799,6.394 3.008,7.357C1.004,9.795 -1.293,12.167 0.295,15.792C1.282,15.204 2.264,14.605 3.262,14.033C3.622,13.827 3.958,13.289 4.45,13.78C4.84,14.169 4.968,14.701 4.74,15.184C4.063,16.615 3.181,17.929 1.957,18.943C1.486,19.333 0.786,19.71 0.169,19.297C-0.383,18.928 -0.045,18.279 -0.032,17.73C-0.021,17.305 0.549,16.963 0.051,16.378C-0.365,17.074 -1.052,17.346 -1.699,17.694C-2.228,17.978 -3.118,18.317 -3.145,18.682C-3.253,20.183 -4.546,20.557 -5.372,21.337C-7.917,23.74 -12.427,23.623 -14.876,21.17C-15.783,20.261 -16.356,19.115 -17.122,18.111C-17.714,17.335 -17.694,16.705 -17.231,15.902C-16.735,15.044 -16.827,14.295 -17.346,13.289C-18.038,11.951 -20.249,11.155 -19.154,9.052C-19.14,9.024 -19.266,8.883 -19.349,8.848C-20.859,8.219 -21.753,6.494 -23.886,6.86C-25.459,7.129 -27.302,6.777 -28.569,5.607C-29.955,4.327 -31.342,2.85 -31.674,0.924C-32.147,-1.819 -31.226,-4.32 -29.679,-6.594C-28.89,-7.753 -27.234,-7.803 -26.503,-8.741C-25.57,-9.937 -24.412,-10.072 -23.109,-10.356C-24.484,-11.408 -24.632,-12.618 -24.14,-14.162C-23.674,-15.624 -22.704,-15.503 -21.615,-15.385C-20.964,-15.315 -20.596,-15.563 -20.747,-16.241C-20.978,-17.275 -20.455,-17.67 -19.553,-17.881C-17.845,-18.281 -16.767,-19.662 -15.425,-20.629C-15.262,-20.746 -14.881,-20.918 -15.338,-21.292C-16.355,-22.123 -16.002,-23.013 -15.264,-23.828C-14.42,-24.76 -13.408,-25.507 -12.579,-26.479C-11.255,-28.031 -9.687,-28.216 -7.84,-27.338C-7.473,-27.163 -7.125,-26.944 -6.748,-26.797C-6.303,-26.622 -5.939,-26.931 -5.632,-27.156C-5.187,-27.483 -5.639,-27.747 -5.795,-28.039C-6.203,-28.799 -6.003,-29.634 -6.041,-30.438C-6.069,-31.04 -5.858,-31.408 -5.172,-31.398C-4.472,-31.388 -4.505,-30.915 -4.506,-30.447C-4.507,-29.647 -4.372,-28.943 -3.37,-28.769C-3.446,-29.222 -3.706,-29.734 -3.56,-30.066C-2.846,-31.678 -3.431,-32.56 -4.994,-33.048C-5.285,-33.139 -5.476,-33.42 -5.413,-33.782C-5.339,-34.215 -4.984,-34.105 -4.703,-34.173C-3.647,-34.43 -2.597,-34.709 -1.392,-35.019M-25.712,-32.971C-25.288,-33.017 -24.924,-33.208 -24.661,-33.527C-24.233,-34.047 -24.455,-34.658 -24.567,-35.207C-24.622,-35.479 -25.08,-35.436 -25.222,-35.28C-25.955,-34.469 -27.115,-34.103 -27.772,-32.999C-26.948,-33.079 -26.297,-33.764 -25.696,-32.951C-25.709,-32.913 -25.722,-32.874 -25.734,-32.835C-25.743,-32.804 -25.75,-32.773 -25.758,-32.742C-25.743,-32.818 -25.727,-32.894 -25.712,-32.971M-11.461,-23.317C-12.359,-22.207 -11.284,-20.334 -13.525,-19.512C-11.082,-19.521 -10.708,-20.02 -11.181,-21.741C-11.297,-22.164 -11.225,-22.639 -11.239,-23.09C-10.745,-23.234 -10.136,-23.227 -10.047,-23.926C-10.033,-24.036 -10.165,-24.267 -10.234,-24.269C-10.815,-24.287 -11.029,-23.766 -11.376,-23.439C-11.412,-23.406 -11.433,-23.358 -11.461,-23.317M-45.018,-7.855C-45.551,-26.557 -29.53,-43.372 -9.543,-42.725C9.243,-42.116 24.177,-27.353 24.257,-7.664C24.335,11.181 9.163,28.272 -12.609,27.203C-29.542,26.372 -45.405,11.93 -45.018,-7.855" style="fill:rgb(239,187,32);fill-rule:nonzero;"/>
        </g>
        <g transform="matrix(15.7759,0,0,15.7759,1216.05,1087.79)">
            <path d="M0,-47.003C0,-47.478 -0.32,-47.644 -0.781,-47.627C-1.249,-47.609 -1.728,-47.571 -1.694,-46.918C-1.677,-46.593 -1.76,-46.044 -1.283,-46.132C-0.813,-46.219 -0.108,-46.184 0,-47.003M-9.966,-43.607C-10.505,-43.559 -10.796,-43.157 -10.807,-42.719C-10.824,-42.104 -10.232,-41.881 -9.763,-41.872C-9.268,-41.862 -8.73,-42.145 -8.73,-42.753C-8.73,-43.544 -9.488,-43.394 -9.966,-43.607M8.487,-51.12C7.282,-50.81 6.232,-50.531 5.177,-50.275C4.895,-50.207 4.54,-50.316 4.466,-49.884C4.404,-49.522 4.594,-49.241 4.886,-49.15C6.448,-48.662 7.033,-47.779 6.32,-46.167C6.173,-45.836 6.433,-45.324 6.51,-44.871C5.507,-45.044 5.372,-45.749 5.374,-46.548C5.374,-47.017 5.407,-47.49 4.708,-47.5C4.022,-47.51 3.81,-47.141 3.839,-46.54C3.876,-45.735 3.676,-44.901 4.084,-44.141C4.24,-43.849 4.692,-43.584 4.247,-43.258C3.941,-43.033 3.577,-42.724 3.131,-42.898C2.754,-43.046 2.406,-43.265 2.039,-43.439C0.192,-44.318 -1.376,-44.133 -2.7,-42.58C-3.529,-41.609 -4.541,-40.861 -5.385,-39.93C-6.123,-39.115 -6.475,-38.224 -5.458,-37.393C-5.002,-37.02 -5.383,-36.848 -5.546,-36.731C-6.887,-35.763 -7.965,-34.383 -9.674,-33.983C-10.576,-33.772 -11.099,-33.376 -10.868,-32.343C-10.717,-31.665 -11.085,-31.416 -11.736,-31.487C-12.824,-31.605 -13.795,-31.725 -14.261,-30.263C-14.753,-28.72 -14.605,-27.51 -13.229,-26.458C-14.533,-26.174 -15.691,-26.038 -16.623,-24.842C-17.354,-23.904 -19.011,-23.855 -19.8,-22.696C-21.346,-20.422 -22.267,-17.921 -21.794,-15.177C-21.463,-13.252 -20.075,-11.775 -18.69,-10.494C-17.423,-9.324 -15.58,-8.973 -14.007,-9.242C-11.874,-9.607 -10.979,-7.883 -9.47,-7.253C-9.387,-7.218 -9.26,-7.078 -9.275,-7.049C-10.37,-4.946 -8.159,-4.15 -7.467,-2.813C-6.947,-1.807 -6.856,-1.058 -7.352,-0.199C-7.815,0.603 -7.835,1.233 -7.242,2.009C-6.477,3.013 -5.904,4.159 -4.996,5.069C-2.548,7.521 1.963,7.639 4.508,5.236C5.333,4.456 6.626,4.081 6.735,2.581C6.761,2.215 7.651,1.876 8.181,1.592C8.827,1.245 9.515,0.972 9.93,0.277C10.429,0.861 9.858,1.203 9.848,1.628C9.834,2.178 9.496,2.826 10.048,3.195C10.665,3.609 11.365,3.231 11.836,2.841C13.061,1.828 13.942,0.514 14.619,-0.918C14.848,-1.401 14.719,-1.933 14.33,-2.321C13.837,-2.813 13.502,-2.275 13.141,-2.068C12.143,-1.497 11.161,-0.897 10.174,-0.309C8.586,-3.934 10.883,-6.307 12.887,-8.745C13.678,-9.707 14.232,-10.76 14.565,-11.943C14.893,-13.11 14.683,-13.904 12.905,-13.726C13.926,-14.389 14.475,-15.081 15.462,-15.373C17.073,-15.851 18.679,-19.325 18.034,-20.938C17.817,-21.483 17.864,-21.353 18.273,-21.504C20.277,-22.242 22.942,-21.113 23.682,-19.076C24.174,-17.724 25.133,-16.692 26.504,-16.074C27.134,-15.79 27.508,-15.802 27.476,-16.576C27.43,-17.71 27.811,-18.771 27.482,-19.997C26.976,-21.878 28.078,-23.717 28.323,-25.604C28.393,-26.149 28.685,-26.07 29.077,-25.841C29.915,-25.35 30.525,-24.541 30.64,-23.715C30.799,-22.58 30.855,-21.393 30.877,-20.222C30.917,-18.169 30.664,-16.196 29.857,-14.394C29.122,-12.753 28.753,-10.855 27.246,-9.615C27.181,-9.562 27.124,-9.414 27.152,-9.345C27.719,-7.911 26.601,-7.234 25.851,-6.377C24.922,-5.314 24.449,-3.96 23.528,-2.865C19.657,1.74 14.861,4.97 9.198,6.898C4.695,8.431 0.083,8.809 -4.667,8.2C-10.492,7.454 -15.66,5.216 -20.151,1.557C-23.228,-0.95 -26.08,-3.76 -27.652,-7.571C-28.123,-8.712 -27.826,-9.886 -27.863,-11.028C-27.927,-12.959 -28.936,-14.441 -29.771,-16.016C-30.626,-17.629 -31.748,-19.06 -31.306,-21.151C-31.121,-22.023 -31.644,-23.138 -32.365,-23.912C-32.909,-24.497 -32.796,-25.329 -32.541,-25.74C-32.012,-26.592 -32.379,-27.66 -31.972,-28.28C-30.893,-29.925 -31.741,-31.922 -30.707,-33.577C-30.411,-34.051 -30.641,-35.054 -30.253,-35.755C-30.104,-36.024 -30.11,-35.984 -29.514,-36.081C-29.34,-36.11 -29.059,-36.54 -29.105,-36.712C-29.733,-39.054 -27.829,-40.119 -26.658,-41.505C-26.094,-42.174 -25.425,-43.275 -24.26,-42.015C-24.029,-41.765 -23.188,-41.719 -23.028,-42.612C-22.949,-43.05 -22.648,-43.525 -22.153,-43.753C-21.764,-43.286 -22.076,-43.017 -22.346,-42.695C-22.87,-42.069 -22.985,-41.332 -22.793,-40.547C-22.681,-40.089 -22.365,-39.877 -21.905,-39.854C-21.475,-39.831 -21.212,-40.069 -21.129,-40.448C-20.58,-42.937 -18.499,-44.323 -17.086,-46.197C-16.273,-47.274 -15.481,-47.88 -14.01,-47.41C-14.729,-46.618 -15.819,-46.127 -16.016,-44.953C-16.092,-44.5 -16.296,-44.002 -15.894,-43.672C-15.58,-43.415 -15.073,-43.434 -14.727,-43.642C-13.151,-44.59 -11.418,-44.617 -9.699,-44.442C-7.758,-44.245 -6.756,-45.815 -5.331,-46.569C-4.644,-46.933 -4.258,-47.732 -3.38,-47.951C-2.794,-48.098 -2.787,-48.818 -2.956,-49.275C-3.289,-50.177 -3.651,-51.588 -4.073,-51.843C-5.407,-52.651 -4.318,-53.463 -4.432,-54.215C-4.496,-54.633 -4.127,-54.809 -3.748,-54.888C-1.821,-55.289 0.164,-55.151 2.11,-55.635C2.823,-55.812 3.822,-54.787 4.707,-54.344C5.549,-53.923 6.397,-53.711 6.362,-52.364C6.336,-51.334 7.771,-51.975 8.487,-51.12" style="fill:white;fill-rule:nonzero;"/>
        </g>
        <g transform="matrix(15.7759,0,0,15.7759,1171.34,728.669)">
            <path d="M0,-5.223C0.62,-1.93 3.243,-2.233 5.456,-1.79C5.85,-1.711 6.272,-1.646 6.611,-1.45C7.33,-1.035 7.386,-0.25 7.217,0.402C7.039,1.091 6.472,0.535 6.069,0.522C4.932,0.485 3.874,0.292 2.91,-0.41C2.27,-0.877 1.544,-0.599 0.892,-0.24C-0.596,0.578 -3.233,-0.399 -3.374,-2.007C-3.498,-3.431 -4.326,-3.472 -5.287,-3.523C-6.203,-3.572 -7.125,-3.533 -8.499,-3.533C-6.818,-4.232 -6.552,-5.97 -4.884,-6.178C-3.797,-6.314 -1.994,-5.015 -2.329,-3.972C-2.636,-3.015 -2.592,-2.515 -1.516,-2.387C-0.305,-2.243 -0.399,-3.088 -0.388,-3.855C-0.383,-4.208 -0.387,-4.56 -0.387,-4.913C-0.258,-5.016 -0.129,-5.12 0,-5.223" style="fill:white;fill-rule:nonzero;"/>
        </g>
        <g transform="matrix(15.7759,0,0,15.7759,1257.66,610.294)">
            <path d="M0,2.387C-0.827,2.422 -0.764,1.806 -0.59,1.458C-0.118,0.512 0.607,-0.245 1.78,0.282C2.515,0.611 3.986,0.081 3.868,1.407C3.759,2.632 2.478,1.978 1.713,2.079C1.117,2.157 0.503,2.094 0,2.387" style="fill:white;fill-rule:nonzero;"/>
        </g>
        <g transform="matrix(15.7759,0,0,15.7759,966.501,274.071)">
            <path d="M0,2.526C-0.599,1.715 -1.251,2.399 -2.075,2.48C-1.418,1.375 -0.258,1.009 0.475,0.199C0.617,0.042 1.075,0 1.13,0.271C1.242,0.821 1.464,1.431 1.036,1.951C0.773,2.271 0.409,2.461 -0.015,2.507L0,2.526Z" style="fill:white;fill-rule:nonzero;"/>
        </g>
        <g transform="matrix(-13.2915,-8.49806,-8.49806,13.2915,1154.83,510.738)">
            <path d="M-0.716,-3.559C-0.971,-3.187 -1.165,-2.747 -1.491,-2.455C-2.816,-1.259 -2.771,-0.638 -0.716,0.686C-2.162,-1.213 -0.248,-2.212 -0.407,-3.631C-0.51,-3.607 -0.613,-3.584 -0.716,-3.559" style="fill:white;fill-rule:nonzero;"/>
        </g>
        <g transform="matrix(15.7759,0,0,15.7759,1371.9,651.057)">
            <path d="M0,-3.518C0.845,-3.485 2.266,-1.005 1.881,-0.414C1.612,0 1.229,-0.275 1.187,-0.497C1.013,-1.432 0.286,-1.925 -0.29,-2.542C-0.48,-2.745 -0.587,-2.968 -0.376,-3.207C-0.251,-3.349 -0.082,-3.452 0,-3.518" style="fill:white;fill-rule:nonzero;"/>
        </g>
        <g transform="matrix(15.7759,0,0,15.7759,1191.09,454.212)">
            <path d="M0,0.743C0.028,0.702 0.049,0.654 0.085,0.62C0.432,0.294 0.646,-0.227 1.227,-0.21C1.296,-0.208 1.428,0.023 1.414,0.133C1.325,0.833 0.716,0.826 0.222,0.97C0.148,0.894 0.074,0.819 0,0.743" style="fill:white;fill-rule:nonzero;"/>
        </g>
        <g transform="matrix(-15.5705,-2.53742,-2.53742,15.5705,965.494,317.178)">
            <path d="M-0.012,-0.23C-0.01,-0.153 -0.006,-0.074 -0.004,0.003C-0.007,-0.028 -0.008,-0.061 -0.012,-0.093C-0.018,-0.133 -0.025,-0.173 -0.03,-0.214L-0.012,-0.23" style="fill:white;fill-rule:nonzero;"/>
        </g>
        <g transform="matrix(-15.669,1.83332,1.83332,15.669,1066.39,426.937)">
            <path d="M0.277,-1.761C-0.173,-1.494 -0.944,-1.555 -0.852,-0.769C-0.781,-0.165 -0.213,0.053 0.277,-0.014C0.741,-0.078 1.303,-0.368 1.216,-0.977C1.154,-1.411 0.818,-1.776 0.277,-1.761" style="fill:rgb(239,187,32);fill-rule:nonzero;"/>
        </g>
        <g transform="matrix(-0.790595,-15.7561,-15.7561,0.790595,1198.96,335.045)">
            <path d="M-0.765,-1.046C-1.578,-0.897 -1.508,-0.195 -1.571,0.279C-1.635,0.76 -1.091,0.65 -0.765,0.65C-0.111,0.652 -0.097,0.171 -0.103,-0.297C-0.109,-0.758 -0.291,-1.07 -0.765,-1.046" style="fill:rgb(239,187,32);fill-rule:nonzero;"/>
        </g>
    </g>
    <g transform="matrix(1.15411,0,0,1.15411,-180.518,56.2287)">
        <g transform="matrix(3.61029,0,0,3.61029,-246.012,260.061)">
            <text x="178.086px" y="412.331px" style="font-family:'Poppins-SemiBold', 'Poppins';font-weight:600;font-size:30px;fill:rgb(61,59,58);">O</text>
            <text x="201.636px" y="412.331px" style="font-family:'Poppins-SemiBold', 'Poppins';font-weight:600;font-size:30px;fill:rgb(61,59,58);">U</text>
            <text x="222.546px" y="412.331px" style="font-family:'Poppins-SemiBold', 'Poppins';font-weight:600;font-size:30px;fill:rgb(61,59,58);">T<tspan x="239.871px " y="412.331px ">S</tspan></text>
            <text x="258.126px" y="412.331px" style="font-family:'Poppins-SemiBold', 'Poppins';font-weight:600;font-size:30px;fill:rgb(61,59,58);">O</text>
            <text x="281.676px" y="412.331px" style="font-family:'Poppins-SemiBold', 'Poppins';font-weight:600;font-size:30px;fill:rgb(61,59,58);">U</text>
            <text x="302.586px" y="412.331px" style="font-family:'Poppins-SemiBold', 'Poppins';font-weight:600;font-size:30px;fill:rgb(61,59,58);">R</text>
            <text x="321.816px" y="412.331px" style="font-family:'Poppins-SemiBold', 'Poppins';font-weight:600;font-size:30px;fill:rgb(61,59,58);">C<tspan x="344.856px 353.196px " y="412.331px 412.331px ">IN</tspan></text>
            <text x="375.246px" y="412.331px" style="font-family:'Poppins-SemiBold', 'Poppins';font-weight:600;font-size:30px;fill:rgb(61,59,58);">G</text>
            <text x="405.436px" y="412.331px" style="font-family:'Poppins-SemiBold', 'Poppins';font-weight:600;font-size:30px;fill:rgb(61,59,58);">D</text>
            <text x="426.946px" y="412.331px" style="font-family:'Poppins-SemiBold', 'Poppins';font-weight:600;font-size:30px;fill:rgb(61,59,58);">E</text>
            <text x="450.286px" y="412.331px" style="font-family:'Poppins-SemiBold', 'Poppins';font-weight:600;font-size:30px;fill:rgb(61,59,58);">S</text>
            <text x="468.556px" y="412.331px" style="font-family:'Poppins-SemiBold', 'Poppins';font-weight:600;font-size:30px;fill:rgb(61,59,58);">O<tspan x="492.136px " y="412.331px ">F</tspan></text>
            <text x="508.006px" y="412.331px" style="font-family:'Poppins-SemiBold', 'Poppins';font-weight:600;font-size:30px;fill:rgb(61,59,58);">T</text>
            <text x="525.316px" y="412.331px" style="font-family:'Poppins-SemiBold', 'Poppins';font-weight:600;font-size:30px;fill:rgb(61,59,58);">W</text>
            <text x="556.036px" y="412.331px" style="font-family:'Poppins-SemiBold', 'Poppins';font-weight:600;font-size:30px;fill:rgb(61,59,58);">A</text>
            <text x="577.516px" y="412.331px" style="font-family:'Poppins-SemiBold', 'Poppins';font-weight:600;font-size:30px;fill:rgb(61,59,58);">R<tspan x="596.746px " y="412.331px ">E</tspan></text>
        </g>
        <g>
            <g transform="matrix(2.57888,0,0,2.57888,635.507,1596.69)">
                <path d="M0,-186.815C1.522,-186.134 3.175,-186.42 4.752,-186.276C11.561,-185.655 18.227,-184.361 24.796,-182.504C24.937,-182.464 25.063,-182.375 25.197,-182.308C25.178,-181.368 24.779,-180.522 24.469,-179.669C20.318,-168.25 16.14,-156.84 11.969,-145.428C8.365,-146.281 4.783,-147.187 1.086,-147.638C-3.708,-148.223 -8.494,-148.34 -13.275,-147.808C-21.065,-146.942 -28.539,-144.897 -35.591,-141.419C-36.129,-141.154 -36.636,-140.828 -37.158,-140.53C-37.996,-140.331 -38.744,-139.94 -39.496,-139.524C-43.273,-137.435 -46.751,-134.901 -49.941,-132.032C-52.951,-129.325 -55.87,-126.478 -58.062,-123.007C-63.198,-116.51 -66.647,-109.192 -68.43,-101.127C-74.519,-73.597 -58.788,-47.851 -32.092,-38.609C-30.413,-38.028 -28.701,-37.543 -27.004,-37.013C-26.925,-36.283 -27.102,-35.594 -27.35,-34.92C-28.14,-32.768 -28.94,-30.621 -29.727,-28.468C-32.051,-22.107 -34.432,-15.766 -36.666,-9.373C-37.756,-6.255 -39.148,-3.237 -39.893,0C-71.642,-8.845 -94.589,-27.643 -106.27,-59.008C-110.529,-70.442 -111.969,-82.381 -111.001,-94.511C-109.364,-115.021 -101.528,-133.04 -88.264,-148.691C-74.954,-164.395 -58.317,-175.163 -38.751,-181.411C-29.702,-184.3 -20.433,-186.147 -10.907,-186.512C-10.618,-186.523 -10.277,-186.434 -10.127,-186.815L0,-186.815Z" style="fill:rgb(27,146,209);fill-rule:nonzero;"/>
            </g>
            <g transform="matrix(2.57888,0,0,2.57888,195.501,1248.31)">
                <path d="M0,-3.547C0.634,-5.098 0.757,-6.778 1.446,-8.347C3.831,-13.775 7.926,-17.23 13.574,-18.504C20.008,-19.955 25.793,-18.26 30.416,-13.439C33.202,-10.535 34.694,-7.005 35.022,-2.913C35.389,1.646 34.359,5.761 31.58,9.332C28.443,13.362 24.353,15.757 19.118,16.122C15.014,16.408 11.235,15.596 7.838,13.315C3.588,10.46 0.985,6.502 0.273,1.372C0.257,1.256 0.094,1.161 0,1.056L0,-3.547Z" style="fill:rgb(239,187,32);fill-rule:nonzero;"/>
            </g>
            <g transform="matrix(2.57888,0,0,2.57888,2003.04,1510.73)">
                <path d="M0,-38.731C1.113,-34.499 1.22,-30.375 1.191,-26.245C1.088,-11.93 1.062,2.387 0.783,16.699C0.7,20.978 0.973,25.288 0.336,29.549C-0.169,32.924 -0.998,33.771 -4.38,33.966C-9.249,34.246 -14.067,33.836 -18.709,32.202C-24.766,30.07 -29.13,24.042 -29.154,17.634C-29.197,6.078 -29.087,-5.481 -29.202,-17.037C-29.248,-21.622 -29.764,-26.202 -31.325,-30.574C-33.164,-35.725 -36.199,-37.803 -41.626,-38.162C-46.993,-38.516 -52.359,-38.191 -57.721,-38.408C-58.64,-38.445 -59.568,-38.406 -60.478,-38.515C-62.617,-38.774 -62.474,-39.329 -62.258,-36.732C-61.791,-31.128 -61.683,-25.514 -61.807,-19.893C-61.893,-16.01 -61.953,-12.126 -61.996,-8.242C-62.117,2.801 -62.213,13.843 -62.346,24.885C-62.36,26.054 -62.488,27.232 -62.673,28.388C-63.079,30.92 -64.237,31.941 -67.28,32.119C-72.205,32.408 -77.081,32.011 -81.764,30.329C-87.018,28.442 -90.12,24.466 -91.845,19.36C-92.322,17.948 -92.342,16.338 -92.345,14.818C-92.367,4.386 -92.501,-6.051 -92.269,-16.478C-91.971,-29.875 -92.115,-43.269 -92.137,-56.664C-92.143,-60.035 -92.278,-63.407 -92.388,-66.778C-92.421,-67.813 -92.262,-68.816 -92.036,-69.81C-91.727,-71.166 -91.032,-72.138 -89.474,-72.205C-88.713,-72.238 -87.956,-72.434 -87.197,-72.435C-74.565,-72.446 -61.933,-72.528 -49.303,-72.4C-42.192,-72.328 -35.162,-71.45 -28.47,-68.805C-25.076,-67.464 -21.97,-65.605 -19.056,-63.421C-18.528,-63.025 -18.147,-62.765 -17.479,-63.313C-11.108,-68.534 -3.847,-71.596 4.406,-72.225C14.634,-73.003 24.726,-72.446 34.324,-68.492C41.889,-65.375 47.888,-60.04 53.352,-54.084C57.492,-49.573 60.389,-44.357 62.136,-38.478C62.708,-36.552 63.021,-34.589 63.134,-32.62C63.325,-29.319 63.56,-25.979 63.422,-22.705C63.066,-14.28 63.464,-5.853 63.103,2.561C62.809,9.412 63.015,16.261 62.86,23.108C62.813,25.201 62.737,27.297 62.556,29.382C62.283,32.534 61.138,33.759 57.92,33.954C52.69,34.272 47.529,33.815 42.581,31.894C38.066,30.14 35.515,26.462 33.536,22.357C32.797,20.824 32.825,18.976 32.84,17.239C32.924,7.68 33.125,-1.879 33.094,-11.438C33.077,-16.938 32.869,-22.455 31.583,-27.852C31.121,-29.791 30.456,-31.647 29.439,-33.388C27.581,-36.564 24.707,-37.847 21.191,-38.111C15.524,-38.536 9.846,-38.257 4.175,-38.393C2.815,-38.426 1.458,-38.522 0,-38.731" style="fill:rgb(109,186,222);fill-rule:nonzero;"/>
            </g>
            <g transform="matrix(2.57888,0,0,2.57888,532.628,1351.18)">
                <path d="M0,95.2C0.745,91.963 2.137,88.945 3.227,85.827C5.461,79.434 7.842,73.092 10.166,66.731C10.953,64.579 11.753,62.431 12.543,60.28C12.791,59.605 12.968,58.916 12.889,58.186C18.149,59.353 23.453,60.129 28.86,59.991C29.367,59.978 29.874,59.949 30.381,59.928C33.291,60.152 36.122,59.616 38.948,59.038C43.338,58.603 47.5,57.277 51.607,55.76C59.851,52.715 67.128,48.111 73.509,42.079C73.769,41.834 74.019,41.577 74.262,41.314C74.325,41.246 74.342,41.136 74.416,40.962C73.061,40.612 71.693,40.679 70.34,40.65C59.455,40.417 48.569,40.202 37.684,39.963C36.562,39.938 35.439,39.83 34.324,39.693C31.994,39.408 30.664,38.261 30.08,35.911C29.043,31.735 29.381,27.487 29.613,23.262C29.738,20.98 30.076,18.692 30.728,16.497C33.521,7.086 38.935,0.175 48.959,-2.168C53.353,-3.194 57.863,-3.38 62.339,-3.476C76.039,-3.77 89.738,-3.555 103.43,-2.984C107.362,-2.82 111.301,-2.564 115.23,-2.659C124.336,-2.88 128.59,3.001 130.101,9.35C131.619,15.729 130.56,21.871 128.445,27.942C118.644,56.08 99.734,75.891 72.998,88.484C63.331,93.037 53.136,95.925 42.543,97.441C33.705,98.705 24.874,98.97 15.982,98.068C10.57,97.519 5.248,96.597 0,95.2" style="fill:rgb(26,143,206);fill-rule:nonzero;"/>
            </g>
            <g transform="matrix(2.57888,0,0,2.57888,1614.62,1403.36)">
                <path d="M0,44.661C4.68,44.775 8.921,44.504 13.161,44.936C16.303,45.256 18.869,46.437 21.04,48.794C26.93,55.188 26.73,64.478 23.744,71.021C21.99,74.864 18.517,76.404 14.607,77.178C10.072,78.075 5.476,78.128 0.88,78.167C-8.985,78.249 -18.868,78.127 -28.523,75.908C-46.946,71.674 -60.141,60.981 -66.996,43.195C-69.878,35.718 -70.024,27.743 -69.52,19.782C-69.105,13.227 -67.902,6.872 -65.47,0.743C-58.872,-15.882 -46.457,-26.15 -29.89,-31.833C-25.804,-33.235 -21.462,-33.323 -17.178,-33.418C-9.503,-33.588 -1.782,-33.461 5.495,-30.778C23.156,-24.266 34.37,-11.766 38.864,6.545C40.777,14.338 40.532,22.116 37.397,29.646C36.31,32.255 34.782,34.595 33.056,36.826C30.43,40.22 26.925,42.027 22.737,42.433C16.1,43.076 9.593,42.505 3.417,39.763C-1.033,37.787 -4.581,34.701 -7.357,30.719C-7.734,30.178 -8.06,29.593 -8.344,28.997C-9.272,27.05 -9.012,26.225 -7.03,25.413C-4.176,24.244 -1.498,22.812 0.848,20.789C7.877,14.731 6.852,5.288 -1.324,0.881C-3.126,-0.09 -5.043,-0.756 -7.038,-1.207C-12.267,-2.388 -17.491,-2.449 -22.568,-0.623C-30.103,2.086 -34.197,7.964 -36.224,15.337C-38.695,24.327 -35.073,31.3 -28.475,37.234C-22.748,42.385 -16.031,44.62 -8.457,44.659C-5.491,44.673 -2.525,44.661 0,44.661" style="fill:rgb(26,143,205);fill-rule:nonzero;"/>
            </g>
            <g transform="matrix(2.57888,0,0,2.57888,1261.37,1416.05)">
                <path d="M0,35.189C0,42.142 0.028,49.094 -0.013,56.047C-0.03,59.163 -0.148,62.281 -0.286,65.396C-0.45,69.117 -1.596,70.427 -5.213,70.664C-10.183,70.989 -15.056,70.375 -19.822,68.831C-24.496,67.316 -30.436,60.399 -30.109,54.058C-29.733,46.765 -30.021,39.441 -29.851,32.129C-29.698,25.544 -29.781,18.947 -30.659,12.4C-31.071,9.324 -31.78,6.317 -33.34,3.566C-35.163,0.35 -37.961,-1.113 -41.575,-1.415C-46.887,-1.858 -52.205,-1.499 -57.517,-1.691C-58.996,-1.744 -60.483,-1.615 -61.946,-1.958C-62.934,-2.19 -63.331,-1.858 -63.154,-0.786C-62.704,1.939 -62.595,4.695 -62.594,7.452C-62.587,25.808 -62.938,44.159 -63.198,62.511C-63.213,63.524 -63.352,64.549 -63.556,65.544C-64.004,67.727 -65.084,68.632 -68.057,68.815C-73.284,69.137 -78.47,68.735 -83.367,66.712C-88.323,64.665 -91.271,60.696 -92.754,55.718C-93.398,53.553 -93.247,51.171 -93.255,48.867C-93.329,27.137 -92.694,5.41 -92.943,-16.32C-92.994,-20.764 -93.239,-25.208 -93.211,-29.651C-93.175,-35.476 -91.97,-35.767 -87.272,-35.759C-74.847,-35.739 -62.422,-35.8 -49.998,-35.722C-42.988,-35.679 -36.062,-34.83 -29.497,-32.222C-21.589,-29.081 -15.311,-23.661 -9.631,-17.484C-4.804,-12.232 -1.587,-6.128 -0.171,0.878C0.12,2.318 0.284,3.81 0.29,5.279C0.329,15.249 0.311,25.219 0.311,35.189L0,35.189" style="fill:rgb(26,143,205);fill-rule:nonzero;"/>
            </g>
            <g transform="matrix(2.57888,0,0,2.57888,518.256,1157.73)">
                <path d="M0,185.032C-7.364,184.798 -14.648,184.028 -21.859,182.377C-31.513,180.166 -40.641,176.629 -49.329,171.954C-54.949,168.931 -60.201,165.329 -65.229,161.373C-69.846,157.739 -74.053,153.676 -78.003,149.379C-82.563,144.417 -86.481,138.943 -89.911,133.106C-93.516,126.971 -96.39,120.547 -98.479,113.76C-99.926,109.058 -100.968,104.28 -101.57,99.385C-101.924,96.509 -102.066,93.644 -102.172,90.757C-102.312,86.916 -102.227,83.084 -101.801,79.281C-100.939,71.577 -98.944,64.145 -96.09,56.934C-93.02,49.179 -88.812,42.063 -83.911,35.36C-79.79,29.724 -74.954,24.681 -69.792,20.014C-61.346,12.377 -51.813,6.319 -41.476,1.543C-39.312,0.543 -36.938,0.328 -34.614,0.004C-33.863,-0.1 -32.804,0.009 -32.557,0.873C-32.263,1.901 -33.09,2.715 -33.85,3.25C-36.553,5.153 -39.362,6.906 -42.062,8.813C-44.986,10.879 -47.713,13.193 -50.425,15.539C-53.285,18.013 -55.878,20.729 -58.328,23.569C-61.973,27.792 -65.282,32.292 -68.066,37.137C-71.5,43.111 -74.389,49.331 -76.423,55.942C-77.929,60.836 -78.982,65.808 -79.785,70.866C-80.725,76.777 -80.856,82.714 -80.6,88.64C-80.322,95.067 -79.284,101.421 -77.579,107.648C-75.838,114.002 -73.487,120.121 -70.448,125.961C-67.261,132.085 -63.508,137.838 -58.957,143.058C-57.091,145.199 -55.299,147.409 -53.232,149.36C-47.5,154.769 -41.331,159.603 -34.455,163.499C-27.085,167.676 -19.318,170.857 -11.076,172.84C-7.073,173.802 -3.027,174.487 1.078,174.92C5.587,175.395 10.095,175.48 14.617,175.534C15.895,175.549 17.207,175.887 18.432,176.291C19.297,176.577 20.206,177.075 20.298,178.22C20.393,179.394 19.798,180.138 18.881,180.825C15.921,183.044 12.413,183.726 8.927,184.355C5.994,184.885 3.003,185.132 0,185.032" style="fill:rgb(239,187,32);fill-rule:nonzero;"/>
            </g>
            <g transform="matrix(2.57888,0,0,2.57888,1387.47,1512.35)">
                <path d="M0,-39.81C0,-30.864 -0.174,-21.913 0.05,-12.972C0.265,-4.385 0.204,4.198 0.207,12.783C0.207,14.611 0.217,16.521 -0.274,18.252C-1.753,23.464 -4.861,27.52 -10.01,29.495C-15.219,31.492 -20.689,32.044 -26.245,31.232C-28.233,30.942 -29.133,30.053 -29.479,28.101C-29.693,26.899 -29.801,25.685 -29.847,24.455C-30.238,14.032 -29.945,3.601 -30.238,-6.82C-30.452,-14.436 -30.208,-22.053 -30.453,-29.661C-30.823,-41.153 -26.481,-50.626 -18.569,-58.674C-14.588,-62.724 -10.407,-66.551 -5.701,-69.759C-4.451,-70.611 -3.057,-71.854 -1.533,-71.063C0.032,-70.251 -0.087,-68.361 -0.081,-66.803C-0.044,-57.805 -0.063,-48.808 -0.063,-39.81L0,-39.81Z" style="fill:rgb(109,186,222);fill-rule:nonzero;"/>
            </g>
            <g transform="matrix(2.57888,0,0,2.57888,895.136,1408.69)">
                <path d="M0,40.362C0.492,17.972 0.246,-4.422 0.296,-26.815C0.299,-28.291 0.207,-30.024 1.627,-30.834C3.103,-31.677 4.503,-30.571 5.678,-29.716C13.405,-24.096 20.584,-17.902 25.625,-9.625C28.961,-4.147 30.561,1.843 30.625,8.268C30.777,23.555 30.283,38.837 30.243,54.123C30.233,57.694 30.127,61.275 30.032,64.85C30.001,66.018 29.888,67.196 29.676,68.343C29.275,70.509 28.314,71.416 25.355,71.636C19.919,72.039 14.442,71.766 9.479,69.351C3.407,66.397 0.097,61.365 0.011,54.475C-0.047,49.771 0,45.066 0,40.362" style="fill:rgb(109,186,222);fill-rule:nonzero;"/>
            </g>
            <g transform="matrix(2.57888,0,0,2.57888,666.374,1157.68)">
                <path d="M0,24.804C4.171,13.392 8.349,1.982 12.5,-9.437C12.81,-10.29 13.209,-11.136 13.228,-12.076C17.452,-10.644 21.68,-9.23 25.759,-7.402C34.334,-3.559 42.32,1.304 49.814,6.922C57.095,12.382 63.954,18.359 69.936,25.268C70.568,25.997 71.15,26.786 71.65,27.611C73.046,29.912 72.498,31.649 70.044,32.835C68.053,33.797 65.893,34.212 63.75,34.588C56.003,35.949 48.184,36.621 40.323,36.729C29.217,36.88 18.82,34.303 9.207,28.622C6.341,26.928 3.102,25.999 0,24.804" style="fill:rgb(26,143,206);fill-rule:nonzero;"/>
            </g>
            <g transform="matrix(2.57888,0,0,2.57888,485.773,1243.98)">
                <path d="M0,13.762C2.192,10.291 5.11,7.444 8.121,4.736C11.311,1.868 14.789,-0.666 18.566,-2.755C19.318,-3.171 20.065,-3.562 20.904,-3.761C22.497,-3.949 24.088,-4.148 25.683,-4.322C29.348,-4.72 32.984,-5.006 36.711,-4.708C41.521,-4.324 46.16,-3.362 50.64,-1.706C54.911,-0.127 59.112,1.659 63.268,3.525C68.214,5.745 73.308,7.524 78.475,9.127C81.941,10.203 85.063,12.068 88.381,13.485C91.558,14.843 94.661,16.373 97.988,17.915C96.219,18.768 94.516,18.49 92.946,18.325C90.106,18.027 87.253,17.864 84.428,17.235C80.101,16.272 75.984,14.772 71.875,13.18C65.106,10.557 58.649,7.161 51.67,5.061C47.702,3.867 43.681,3.144 39.518,3.013C31.504,2.761 23.74,3.9 16.231,6.72C11.09,8.651 6.28,11.274 1.442,13.836C1.129,14.002 0.84,14.239 0.508,14.334C0.048,14.465 0.093,14.026 0,13.762" style="fill:rgb(239,187,32);fill-rule:nonzero;"/>
            </g>
            <g transform="matrix(2.57888,0,0,2.57888,633.07,1465.44)">
                <path d="M0,14.731C-2.826,15.308 -5.657,15.845 -8.567,15.62C-6.844,14.147 -4.747,13.265 -2.843,12.082C0.993,9.699 4.469,6.852 8.405,4.01C7.598,4.01 7.118,4.015 6.638,4.009C0.781,3.935 -5.07,3.616 -10.932,3.639C-12.526,3.645 -14.157,3.418 -15.777,3.391C-16.064,3.386 -16.344,3.438 -16.554,3.084C-17.313,1.801 -18.355,0.685 -18.934,-0.933C-15.411,-0.707 -12.038,-1.114 -8.638,-0.654C-6.481,-0.361 -4.251,-0.629 -2.055,-0.587C3.955,-0.47 9.964,-0.314 15.973,-0.2C18.338,-0.155 20.733,-0.112 23.245,0.067C22.49,1.414 21.135,1.968 20.068,2.791C14.934,6.749 9.576,10.368 3.666,13.105C2.452,13.667 1.091,13.896 0,14.731" style="fill:rgb(239,187,32);fill-rule:nonzero;"/>
            </g>
        </g>
    </g>
</svg>
